# xmcd CD database file
#
# Track frame offsets:
#	150
#	32002
#	47110
#	89535
#	109147
#	146625
#	173785
#	206635
#	241882
#	278257
#	282352
#	309232
#	344147
#
# Disc length: 4772 seconds
#
# Revision: 0
# Processed by: cddbd v1.5.2PL0 Copyright (c) Steve Scherf et al.
# Submitted via: CDex 1.70beta2
#
DISCID=bd12a20d
DTITLE=Book Compilation: Tanner, Megill, and Gerow - Jazz: Tenth Edition CD2
DYEAR=1900
DGENRE=Jazz
TTITLE0=Django
TTITLE1=Summertime
TTITLE2=So What
TTITLE3=The Preacher
TTITLE4=Blue 7
TTITLE5=Autumn Leaves
TTITLE6=Faces and Places
TTITLE7=A Love Summertime - Part 1 - Acknowledgement
TTITLE8=Bitches Brew (excerpt)
TTITLE9=Stretch It - Part 1
TTITLE10=Birdland
TTITLE11=Itsbynne Reel (excerpt)
TTITLE12=Hackensack
EXTD=
EXTT0=
EXTT1=
EXTT2=
EXTT3=
EXTT4=
EXTT5=
EXTT6=
EXTT7=
EXTT8=
EXTT9=
EXTT10=
EXTT11=
EXTT12=
PLAYORDER=
